<?xml version="1.0" encoding="UTF-8" standalone="no"?>
<svg xmlns="http://www.w3.org/2000/svg" height="100" width="100" version="1.1" viewBox="0 0 100 100">
	<circle cx="50" cy="50" r="50" fill="#ff40ff"/>
	<path d="m34.9555 28.0247q1.36768-1.1459 2.95715-2.14393 1.62643-0.998038 3.47465-1.73732 1.84822-0.776252 3.95519-1.18286 2.14393-0.443572 4.62055-0.443572 3.47465 0 6.24698 0.924109 2.80929 0.924109 4.7684 2.66143 1.95911 1.70036 2.99411 4.14001 1.07197 2.40268 1.07197 5.35983 0 2.80929-0.776252 4.8793-0.776252 2.03304-1.95911 3.54858t-2.62447 2.62447q-1.40465 1.10893-2.6984 2.07-1.25679 0.924109-2.21786 1.84822-0.924109 0.924109-1.18286 2.07l-1.035 5.17501h-7.83644l-0.813216-5.95126q-0.295715-1.81125 0.369644-3.14197 0.665358-1.36768 1.81125-2.43965 1.18286-1.10893 2.62447-2.07 1.44161-0.998038 2.6984-2.10697 1.25679-1.1459 2.10697-2.51358 0.887145-1.40464 0.887145-3.32679 0-2.21786-1.47857-3.51162-1.44161-1.33072-3.99215-1.33072-1.95911 0-3.28983 0.406608-1.29375 0.406608-2.25483 0.924109-0.924109 0.480537-1.62643 0.887145-0.702323 0.406608-1.40465 0.406608-1.58947 0-2.36572-1.36768zm6.80144 43.1374q0-1.33072 0.480537-2.47661 0.517501-1.1459 1.36768-1.99608 0.887145-0.850181 2.07-1.33072 1.18286-0.517501 2.58751-0.517501 1.36768 0 2.55054 0.517501 1.18286 0.480537 2.07 1.33072 0.887145 0.85018 1.36768 1.99608 0.517501 1.1459 0.517501 2.47661 0 1.33072-0.517501 2.51358-0.480537 1.1459-1.36768 1.99608-0.887144 0.85018-2.07 1.33072-1.18286 0.480537-2.55054 0.480537-1.40465 0-2.58751-0.480537t-2.07-1.33072q-0.85018-0.850181-1.36768-1.99608-0.480537-1.18286-0.480537-2.51358z" stroke="#ffffff" stroke-width="3.46562" fill="#ffffff"/>
</svg>
